<mxfile host="app.diagrams.net" modified="2023-05-16T09:40:55.930Z" agent="Mozilla/5.0 (Windows NT 10.0; Win64; x64) AppleWebKit/537.36 (KHTML, like Gecko) Chrome/113.0.0.0 Safari/537.36" etag="1JJLTnjGc28yEwUASnXM" version="21.3.2" type="github">
  <diagram name="Página-1" id="PYVLZVEHmcMjRAihG1IU">
    <mxGraphModel dx="1434" dy="788" grid="1" gridSize="10" guides="1" tooltips="1" connect="1" arrows="1" fold="1" page="1" pageScale="1" pageWidth="827" pageHeight="1169" math="0" shadow="0">
      <root>
        <mxCell id="0" />
        <mxCell id="1" parent="0" />
        <mxCell id="kSRpcw5BmKCSLYX8VmCF-3" value="HOME PAGE" style="rounded=0;whiteSpace=wrap;html=1;" parent="1" vertex="1">
          <mxGeometry x="314" width="200" height="80" as="geometry" />
        </mxCell>
        <mxCell id="62ibxiBJI_Gz4aHvacPd-13" value="" style="strokeWidth=2;html=1;shape=mxgraph.flowchart.annotation_1;align=left;pointerEvents=1;rotation=90;" vertex="1" parent="1">
          <mxGeometry x="255.63" y="60.63" width="60" height="258.75" as="geometry" />
        </mxCell>
        <mxCell id="62ibxiBJI_Gz4aHvacPd-14" value="" style="endArrow=none;html=1;rounded=0;strokeWidth=2;entryX=1;entryY=0;entryDx=0;entryDy=0;entryPerimeter=0;" edge="1" parent="1" target="62ibxiBJI_Gz4aHvacPd-13">
          <mxGeometry width="50" height="50" relative="1" as="geometry">
            <mxPoint x="414" y="160" as="sourcePoint" />
            <mxPoint x="414" y="210" as="targetPoint" />
            <Array as="points">
              <mxPoint x="414" y="80" />
            </Array>
          </mxGeometry>
        </mxCell>
        <mxCell id="62ibxiBJI_Gz4aHvacPd-15" value="" style="strokeWidth=2;html=1;shape=mxgraph.flowchart.annotation_1;align=left;pointerEvents=1;rotation=90;" vertex="1" parent="1">
          <mxGeometry x="520.63" y="54.38" width="60" height="271.25" as="geometry" />
        </mxCell>
        <mxCell id="62ibxiBJI_Gz4aHvacPd-18" value="VENDA DE BILHETES&lt;br&gt;(Cliente)" style="rounded=0;whiteSpace=wrap;html=1;" vertex="1" parent="1">
          <mxGeometry x="40" y="220" width="200" height="80" as="geometry" />
        </mxCell>
        <mxCell id="62ibxiBJI_Gz4aHvacPd-20" value="GESTÃO DE STOCK&lt;br&gt;(Vendedor)" style="rounded=0;whiteSpace=wrap;html=1;" vertex="1" parent="1">
          <mxGeometry x="320.63" y="220" width="200" height="80" as="geometry" />
        </mxCell>
        <mxCell id="62ibxiBJI_Gz4aHvacPd-21" value="CONTACTOS" style="rounded=0;whiteSpace=wrap;html=1;" vertex="1" parent="1">
          <mxGeometry x="600" y="220" width="200" height="80" as="geometry" />
        </mxCell>
      </root>
    </mxGraphModel>
  </diagram>
</mxfile>
